<svg width="180" height="36" viewBox="0 0 180 36" fill="none" xmlns="http://www.w3.org/2000/svg">
<path d="M100.823 35.1622H104.192V25.428H115.321V35.1622H118.7V12.8379H115.321V22.5394H104.192V12.8379H100.823V35.1622Z" fill="#E8363D"/>
<path d="M128.248 35.5001C132.968 35.5001 136.052 32.0447 136.052 26.8669C136.052 21.6564 132.968 18.201 128.248 18.201C123.528 18.201 120.443 21.6564 120.443 26.8669C120.443 32.0447 123.528 35.5001 128.248 35.5001ZM128.259 32.7641C125.174 32.7641 123.735 30.0717 123.735 26.856C123.735 23.6512 125.174 20.9261 128.259 20.9261C131.322 20.9261 132.761 23.6512 132.761 26.856C132.761 30.0717 131.322 32.7641 128.259 32.7641Z" fill="#E8363D"/>
<path d="M137.542 35.1622H140.801V24.8394C140.801 22.583 142.382 21.0133 144.235 21.0133C146.044 21.0133 147.298 22.2124 147.298 24.0328V35.1622H150.546V24.4906C150.546 22.474 151.778 21.0133 153.904 21.0133C155.626 21.0133 157.043 21.9725 157.043 24.2399V35.1622H160.302V23.9346C160.302 20.1086 158.166 18.201 155.135 18.201C152.726 18.201 150.917 19.3564 150.11 21.1441H149.936C149.205 19.3128 147.668 18.201 145.434 18.201C143.221 18.201 141.575 19.3019 140.877 21.1441H140.67V18.419H137.542V35.1622Z" fill="#E8363D"/>
<path d="M169.738 35.5001C173.39 35.5001 175.973 33.7015 176.714 30.9764L173.63 30.4205C173.041 32.001 171.624 32.8077 169.771 32.8077C166.98 32.8077 165.105 30.9982 165.018 27.7716H176.921V26.6162C176.921 20.5664 173.302 18.201 169.509 18.201C164.844 18.201 161.77 21.7545 161.77 26.8996C161.77 32.0992 164.8 35.5001 169.738 35.5001ZM165.029 25.3299C165.16 22.9536 166.882 20.8934 169.531 20.8934C172.06 20.8934 173.717 22.7683 173.728 25.3299H165.029Z" fill="#E8363D"/>
<path d="M0.0244141 0V35.405H6.48997L21.8932 13.1213H22.1525V35.405H29.638V0H23.0688L7.78654 22.2664H7.47536V0H0.0244141Z" fill="#485696"/>
<path d="M64.1992 0H35.0869V35.405H42.486V6.08523H56.8001V35.405H64.1992V0Z" fill="#485696"/>
<path d="M69.6221 35.405H82.8644C91.2662 35.405 96.487 30.7892 96.487 24.0989C96.487 17.3913 91.2662 13.0867 82.8644 13.0867H77.1077V6.17167H93.116V0H69.6221V35.405ZM77.1077 29.3889V18.9991H82.8644C86.8752 18.9991 89.0707 21.2119 89.0707 24.0297C89.0707 26.9341 86.8752 29.3889 82.8644 29.3889H77.1077Z" fill="#485696"/>
<path fill-rule="evenodd" clip-rule="evenodd" d="M169.877 12.3601L161.287 18.3474L160.327 16.9702L169.397 10.6484H170.357L179.427 16.9702L178.467 18.3474L169.877 12.3601Z" fill="#E8363D"/>
</svg>
